<?xml version="1.0" encoding="UTF-8"?>
<!-- Generator: Adobe Illustrator 25.2.1, SVG Export Plug-In . SVG Version: 6.00 Build 0)  -->
<svg version="1.1" id="Layer_1" xmlns="http://www.w3.org/2000/svg" xmlns:xlink="http://www.w3.org/1999/xlink" x="0px" y="0px" viewBox="0 0 60 31" style="enable-background:new 0 0 60 31;" xml:space="preserve">
<style type="text/css">
	.st0{fill:#FFFFFF;}
	.st1{fill:#05141F;}
</style>
<g>
	<path class="st1" d="M34.8,20.9c0,0.1,0,0.2,0.1,0.2c0.1,0,0.1,0,0.1-0.1L53.8,8.8c0.3-0.2,0.6-0.3,1.1-0.3h4.1   c0.6,0,1.1,0.4,1.1,1.1v7.8c0,0.9-0.2,1.5-1.1,2l-5,3c-0.1,0-0.1,0.1-0.2,0.1c-0.1,0-0.1,0-0.1-0.2v-9.2c0-0.1,0-0.2-0.1-0.2   c-0.1,0-0.1,0-0.1,0.1l-13.7,8.9c-0.4,0.2-0.7,0.3-1,0.3h-9.1c-0.6,0-1.1-0.4-1.1-1.1V9.8c0-0.1,0-0.2-0.1-0.2   c-0.1,0-0.1,0-0.1,0.1l-9,5.4c-0.1,0.1-0.1,0.1-0.1,0.1s0,0.1,0.1,0.1l6.4,6.4c0.1,0.1,0.1,0.2,0.1,0.2c0,0.1-0.1,0.1-0.2,0.1h-5.8   c-0.5,0-0.8-0.1-1.1-0.3l-3.9-3.9c0,0-0.1-0.1-0.1-0.1c0,0-0.1,0-0.1,0l-6.5,3.9c-0.4,0.2-0.7,0.3-1.1,0.3h-6   c-0.6,0-1.1-0.4-1.1-1.1v-7.7c0-1,0.2-1.5,1.1-2l5-3c0.1,0,0.1,0,0.1,0c0.1,0,0.1,0.1,0.1,0.2v10.3c0,0.1,0,0.2,0.1,0.2   c0,0,0.1,0,0.1-0.1L23.5,8.8c0.4-0.2,0.7-0.3,1.1-0.3h9.1c0.6,0,1.1,0.4,1.1,1.1L34.8,20.9L34.8,20.9z"/>
</g>
</svg>